<svg height='300px' width='300px'  fill="#44CC00" xmlns="http://www.w3.org/2000/svg" xmlns:xlink="http://www.w3.org/1999/xlink" version="1.2" baseProfile="tiny" x="0px" y="0px" viewBox="0 0 128 128" xml:space="preserve"><g><path fill="#44CC00" d="M49.3,33.8L49.3,33.8c1.4,0.7,1.8,2.3,0.9,3.5l0,0C36.9,56,30.5,75.2,27.5,90.2c4-6,8.8-11.4,14.5-15.9   c10.5-8.4,23.2-13.7,37.2-15.7C81.6,39.9,75,19.7,58.6,1l0,0C2.1,20.9-15.3,70.2,17.4,113.1c0.5-2.1,1.1-4.1,1.8-6.1   c1-15.6,5.9-44.2,26-72.4l0,0C46.1,33.5,47.9,33.1,49.3,33.8z"></path><path fill="#44CC00" d="M127,70.1c-48.1-19.2-93.7,1.1-104.2,45.3c8.5-7.1,34.2-26.1,72.4-33l0,0c1.6-0.3,3.1,0.6,3.4,2l0,0   c0.3,1.4-0.7,2.7-2.3,3l0,0c-40.6,7.3-67.1,29.5-71.6,33.5C73.3,138.7,118.8,116.4,127,70.1L127,70.1z"></path></g></svg>